<mxfile host="65bd71144e">
    <diagram id="YvTbdJ-9MWDgzSPk-T_Q" name="Page-1">
        <mxGraphModel dx="1440" dy="2147" grid="1" gridSize="10" guides="1" tooltips="1" connect="1" arrows="1" fold="1" page="1" pageScale="1" pageWidth="1600" pageHeight="900" math="0" shadow="0">
            <root>
                <mxCell id="0"/>
                <mxCell id="1" parent="0"/>
                <mxCell id="55" value="" style="rounded=1;whiteSpace=wrap;html=1;rotation=-90;fillColor=#647687;fontColor=#ffffff;strokeColor=#314354;" vertex="1" parent="1">
                    <mxGeometry x="800" y="400" width="500" height="20" as="geometry"/>
                </mxCell>
                <mxCell id="15" value="Door Exit" style="text;html=1;align=center;verticalAlign=middle;resizable=0;points=[];autosize=1;strokeColor=none;fillColor=none;imageWidth=9;imageHeight=14;" parent="1" vertex="1">
                    <mxGeometry x="800" y="320" width="70" height="30" as="geometry"/>
                </mxCell>
                <mxCell id="18" value="B1" style="rounded=1;whiteSpace=wrap;html=1;rotation=-90;fillColor=#f0a30a;strokeColor=#BD7000;fontColor=#000000;" parent="1" vertex="1">
                    <mxGeometry x="735" y="255" width="90" height="40" as="geometry"/>
                </mxCell>
                <mxCell id="19" value="" style="group" parent="1" vertex="1" connectable="0">
                    <mxGeometry x="720" y="340" width="389" height="360" as="geometry"/>
                </mxCell>
                <mxCell id="13" style="edgeStyle=none;html=1;exitX=0.5;exitY=0;exitDx=0;exitDy=0;" parent="19" source="9" edge="1">
                    <mxGeometry relative="1" as="geometry">
                        <mxPoint x="92.25146198830407" as="targetPoint"/>
                    </mxGeometry>
                </mxCell>
                <mxCell id="14" style="edgeStyle=none;html=1;exitX=0.5;exitY=0;exitDx=0;exitDy=0;" parent="19" source="10" edge="1">
                    <mxGeometry relative="1" as="geometry">
                        <mxPoint x="144.88304093567248" as="targetPoint"/>
                    </mxGeometry>
                </mxCell>
                <mxCell id="20" value="" style="group" parent="19" vertex="1" connectable="0">
                    <mxGeometry y="12" width="389" height="348" as="geometry"/>
                </mxCell>
                <mxCell id="32" style="edgeStyle=none;html=1;exitX=0.5;exitY=0;exitDx=0;exitDy=0;" edge="1" parent="20" source="2">
                    <mxGeometry relative="1" as="geometry">
                        <mxPoint x="125.20000000000005" y="-2" as="targetPoint"/>
                    </mxGeometry>
                </mxCell>
                <mxCell id="2" value="Palace - 3 floors + terrace&lt;div&gt;flag on top&lt;/div&gt;" style="rounded=1;whiteSpace=wrap;html=1;fillColor=#e3c800;fontColor=#000000;strokeColor=#B09500;" parent="20" vertex="1">
                    <mxGeometry x="26.315789473684212" y="24" width="197.36842105263162" height="84" as="geometry"/>
                </mxCell>
                <mxCell id="3" value="Bastion" style="shape=hexagon;perimeter=hexagonPerimeter2;whiteSpace=wrap;html=1;fixedSize=1;size=30;fillColor=#a0522d;fontColor=#ffffff;strokeColor=#6D1F00;" parent="20" vertex="1">
                    <mxGeometry y="84" width="52.631578947368425" height="48" as="geometry"/>
                </mxCell>
                <mxCell id="4" value="&lt;span style=&quot;color: rgb(255, 255, 255);&quot;&gt;Bastion&lt;/span&gt;" style="shape=hexagon;perimeter=hexagonPerimeter2;whiteSpace=wrap;html=1;fixedSize=1;size=20;fillColor=#a0522d;fontColor=#ffffff;strokeColor=#6D1F00;" parent="20" vertex="1">
                    <mxGeometry x="197.36842105263162" y="84" width="52.631578947368425" height="48" as="geometry"/>
                </mxCell>
                <mxCell id="5" value="&lt;span style=&quot;color: rgb(255, 255, 255);&quot;&gt;Bastion&lt;/span&gt;" style="shape=hexagon;perimeter=hexagonPerimeter2;whiteSpace=wrap;html=1;fixedSize=1;size=20;fillColor=#a0522d;fontColor=#ffffff;strokeColor=#6D1F00;" parent="20" vertex="1">
                    <mxGeometry x="197.36842105263162" width="52.631578947368425" height="48" as="geometry"/>
                </mxCell>
                <mxCell id="6" value="&lt;span style=&quot;color: rgb(255, 255, 255);&quot;&gt;Bastion&lt;/span&gt;" style="shape=hexagon;perimeter=hexagonPerimeter2;whiteSpace=wrap;html=1;fixedSize=1;size=20;fillColor=#a0522d;fontColor=#ffffff;strokeColor=#6D1F00;" parent="20" vertex="1">
                    <mxGeometry width="52.631578947368425" height="48" as="geometry"/>
                </mxCell>
                <mxCell id="11" style="edgeStyle=none;html=1;" parent="20" source="7" edge="1">
                    <mxGeometry relative="1" as="geometry">
                        <mxPoint x="92.10526315789474" y="144" as="targetPoint"/>
                    </mxGeometry>
                </mxCell>
                <mxCell id="7" value="" style="rhombus;whiteSpace=wrap;html=1;" parent="20" vertex="1">
                    <mxGeometry x="78.94736842105264" y="96" width="26.315789473684212" height="24" as="geometry"/>
                </mxCell>
                <mxCell id="12" style="edgeStyle=none;html=1;" parent="20" source="8" edge="1">
                    <mxGeometry relative="1" as="geometry">
                        <mxPoint x="144.73684210526318" y="144" as="targetPoint"/>
                    </mxGeometry>
                </mxCell>
                <mxCell id="8" value="" style="rhombus;whiteSpace=wrap;html=1;" parent="20" vertex="1">
                    <mxGeometry x="131.57894736842107" y="96" width="26.315789473684212" height="24" as="geometry"/>
                </mxCell>
                <mxCell id="9" value="" style="rhombus;whiteSpace=wrap;html=1;" parent="20" vertex="1">
                    <mxGeometry x="78.94736842105264" y="12" width="26.315789473684212" height="24" as="geometry"/>
                </mxCell>
                <mxCell id="10" value="" style="rhombus;whiteSpace=wrap;html=1;" parent="20" vertex="1">
                    <mxGeometry x="131.57894736842107" y="12" width="26.315789473684212" height="24" as="geometry"/>
                </mxCell>
                <mxCell id="17" value="Door Entry" style="text;html=1;align=center;verticalAlign=middle;resizable=0;points=[];autosize=1;strokeColor=none;fillColor=none;imageWidth=9;imageHeight=14;" parent="20" vertex="1">
                    <mxGeometry x="72.36842105263159" y="132" width="80" height="30" as="geometry"/>
                </mxCell>
                <mxCell id="24" value="" style="triangle;whiteSpace=wrap;html=1;fillColor=#fa6800;fontColor=#000000;strokeColor=#C73500;" parent="20" vertex="1">
                    <mxGeometry x="120" y="84" width="10" height="10" as="geometry"/>
                </mxCell>
                <mxCell id="26" value="" style="triangle;whiteSpace=wrap;html=1;fillColor=#fa6800;fontColor=#000000;strokeColor=#C73500;" parent="20" vertex="1">
                    <mxGeometry x="21.319999999999993" y="132" width="10" height="10" as="geometry"/>
                </mxCell>
                <mxCell id="27" value="" style="triangle;whiteSpace=wrap;html=1;fillColor=#fa6800;fontColor=#000000;strokeColor=#C73500;" parent="20" vertex="1">
                    <mxGeometry x="218.68" y="132" width="10" height="10" as="geometry"/>
                </mxCell>
                <mxCell id="31" style="edgeStyle=none;html=1;entryX=0.658;entryY=0.2;entryDx=0;entryDy=0;entryPerimeter=0;" edge="1" parent="20" source="2" target="17">
                    <mxGeometry relative="1" as="geometry"/>
                </mxCell>
                <mxCell id="40" value="" style="shape=hexagon;perimeter=hexagonPerimeter2;whiteSpace=wrap;html=1;fixedSize=1;" vertex="1" parent="20">
                    <mxGeometry x="72.37" y="198" width="90" height="48" as="geometry"/>
                </mxCell>
                <mxCell id="41" value="Statue" style="triangle;whiteSpace=wrap;html=1;direction=south;" vertex="1" parent="20">
                    <mxGeometry x="98.37" y="209.5" width="38" height="25" as="geometry"/>
                </mxCell>
                <mxCell id="43" value="" style="ellipse;whiteSpace=wrap;html=1;aspect=fixed;fillColor=#0050ef;fontColor=#ffffff;strokeColor=#001DBC;" vertex="1" parent="20">
                    <mxGeometry x="60.00000000000004" y="212" width="20" height="20" as="geometry"/>
                </mxCell>
                <mxCell id="44" value="" style="ellipse;whiteSpace=wrap;html=1;aspect=fixed;fillColor=#0050ef;fontColor=#ffffff;strokeColor=#001DBC;" vertex="1" parent="20">
                    <mxGeometry x="152.37000000000006" y="212" width="20" height="20" as="geometry"/>
                </mxCell>
                <mxCell id="45" value="" style="ellipse;whiteSpace=wrap;html=1;aspect=fixed;fillColor=#0050ef;fontColor=#ffffff;strokeColor=#001DBC;" vertex="1" parent="20">
                    <mxGeometry x="107.37000000000006" y="246" width="20" height="20" as="geometry"/>
                </mxCell>
                <mxCell id="46" value="" style="ellipse;whiteSpace=wrap;html=1;aspect=fixed;fillColor=#0050ef;fontColor=#ffffff;strokeColor=#001DBC;" vertex="1" parent="20">
                    <mxGeometry x="107.37000000000006" y="178" width="20" height="20" as="geometry"/>
                </mxCell>
                <mxCell id="53" value="" style="rounded=1;whiteSpace=wrap;html=1;fillColor=#647687;fontColor=#ffffff;strokeColor=#314354;" vertex="1" parent="20">
                    <mxGeometry x="-80" y="308" width="400" height="20" as="geometry"/>
                </mxCell>
                <mxCell id="58" value="Bastion" style="shape=hexagon;perimeter=hexagonPerimeter2;whiteSpace=wrap;html=1;fixedSize=1;size=296.32000000000016;fillColor=#a0522d;fontColor=#ffffff;strokeColor=#6D1F00;" vertex="1" parent="20">
                    <mxGeometry x="303" y="294" width="52.631578947368425" height="48" as="geometry"/>
                </mxCell>
                <mxCell id="63" value="Bastion" style="shape=hexagon;perimeter=hexagonPerimeter2;whiteSpace=wrap;html=1;fixedSize=1;size=93.00000000000023;fillColor=#a0522d;fontColor=#ffffff;strokeColor=#6D1F00;" vertex="1" parent="20">
                    <mxGeometry x="302.9999999999998" y="42" width="52.631578947368425" height="48" as="geometry"/>
                </mxCell>
                <mxCell id="67" style="edgeStyle=none;html=1;exitX=0.5;exitY=1;exitDx=0;exitDy=0;" edge="1" parent="20" source="65">
                    <mxGeometry relative="1" as="geometry">
                        <mxPoint x="58" y="378" as="targetPoint"/>
                    </mxGeometry>
                </mxCell>
                <mxCell id="65" value="Bastion" style="shape=hexagon;perimeter=hexagonPerimeter2;whiteSpace=wrap;html=1;fixedSize=1;size=93.00000000000023;fillColor=#a0522d;fontColor=#ffffff;strokeColor=#6D1F00;" vertex="1" parent="20">
                    <mxGeometry x="31.31999999999971" y="294" width="52.631578947368425" height="48" as="geometry"/>
                </mxCell>
                <mxCell id="68" style="edgeStyle=none;html=1;" edge="1" parent="20" source="66">
                    <mxGeometry relative="1" as="geometry">
                        <mxPoint x="178.68578947368383" y="378" as="targetPoint"/>
                    </mxGeometry>
                </mxCell>
                <mxCell id="66" value="Bastion" style="shape=hexagon;perimeter=hexagonPerimeter2;whiteSpace=wrap;html=1;fixedSize=1;size=58.68000000000029;fillColor=#a0522d;fontColor=#ffffff;strokeColor=#6D1F00;" vertex="1" parent="20">
                    <mxGeometry x="152.36999999999972" y="294" width="52.631578947368425" height="48" as="geometry"/>
                </mxCell>
                <mxCell id="28" value="" style="triangle;whiteSpace=wrap;html=1;fillColor=#fa6800;fontColor=#000000;strokeColor=#C73500;" parent="19" vertex="1">
                    <mxGeometry x="220" width="10" height="10" as="geometry"/>
                </mxCell>
                <mxCell id="29" value="" style="triangle;whiteSpace=wrap;html=1;fillColor=#fa6800;fontColor=#000000;strokeColor=#C73500;" parent="19" vertex="1">
                    <mxGeometry x="20" width="10" height="10" as="geometry"/>
                </mxCell>
                <mxCell id="21" value="&lt;span style=&quot;color: rgb(0, 0, 0);&quot;&gt;B2&lt;/span&gt;" style="rounded=1;whiteSpace=wrap;html=1;rotation=-90;fillColor=#f0a30a;fontColor=#000000;strokeColor=#BD7000;" parent="1" vertex="1">
                    <mxGeometry x="855" y="255" width="90" height="40" as="geometry"/>
                </mxCell>
                <mxCell id="30" value="&lt;font style=&quot;color: rgb(13, 13, 13);&quot;&gt;Fountain&lt;/font&gt;" style="ellipse;whiteSpace=wrap;html=1;aspect=fixed;fillColor=#0050ef;fontColor=#ffffff;strokeColor=#001DBC;" vertex="1" parent="1">
                    <mxGeometry x="830" y="265" width="20" height="20" as="geometry"/>
                </mxCell>
                <mxCell id="35" value="" style="rhombus;whiteSpace=wrap;html=1;" vertex="1" parent="1">
                    <mxGeometry x="795" y="285" width="10" height="10" as="geometry"/>
                </mxCell>
                <mxCell id="36" value="" style="rhombus;whiteSpace=wrap;html=1;" vertex="1" parent="1">
                    <mxGeometry x="795" y="255" width="10" height="10" as="geometry"/>
                </mxCell>
                <mxCell id="37" value="" style="rhombus;whiteSpace=wrap;html=1;" vertex="1" parent="1">
                    <mxGeometry x="875" y="285" width="10" height="10" as="geometry"/>
                </mxCell>
                <mxCell id="38" value="" style="rhombus;whiteSpace=wrap;html=1;" vertex="1" parent="1">
                    <mxGeometry x="875" y="255" width="10" height="10" as="geometry"/>
                </mxCell>
                <mxCell id="54" value="" style="rounded=1;whiteSpace=wrap;html=1;rotation=-90;fillColor=#647687;fontColor=#ffffff;strokeColor=#314354;" vertex="1" parent="1">
                    <mxGeometry x="380" y="400" width="500" height="20" as="geometry"/>
                </mxCell>
                <mxCell id="56" value="" style="rounded=1;whiteSpace=wrap;html=1;fillColor=#647687;fontColor=#ffffff;strokeColor=#314354;" vertex="1" parent="1">
                    <mxGeometry x="640" y="140" width="400" height="20" as="geometry"/>
                </mxCell>
                <mxCell id="57" value="Bastion" style="shape=hexagon;perimeter=hexagonPerimeter2;whiteSpace=wrap;html=1;fixedSize=1;size=30;fillColor=#a0522d;fontColor=#ffffff;strokeColor=#6D1F00;" vertex="1" parent="1">
                    <mxGeometry x="603.68" y="640" width="52.631578947368425" height="48" as="geometry"/>
                </mxCell>
                <mxCell id="59" value="Bastion" style="shape=hexagon;perimeter=hexagonPerimeter2;whiteSpace=wrap;html=1;fixedSize=1;size=26.320000000000164;fillColor=#a0522d;fontColor=#ffffff;strokeColor=#6D1F00;" vertex="1" parent="1">
                    <mxGeometry x="603.68" y="126" width="52.631578947368425" height="48" as="geometry"/>
                </mxCell>
                <mxCell id="60" value="Bastion" style="shape=hexagon;perimeter=hexagonPerimeter2;whiteSpace=wrap;html=1;fixedSize=1;size=26.320000000000164;fillColor=#a0522d;fontColor=#ffffff;strokeColor=#6D1F00;" vertex="1" parent="1">
                    <mxGeometry x="1023.68" y="126" width="52.631578947368425" height="48" as="geometry"/>
                </mxCell>
                <mxCell id="69" style="edgeStyle=none;html=1;" edge="1" parent="1" source="61">
                    <mxGeometry relative="1" as="geometry">
                        <mxPoint x="778.685789473684" y="90" as="targetPoint"/>
                    </mxGeometry>
                </mxCell>
                <mxCell id="61" value="Bastion" style="shape=hexagon;perimeter=hexagonPerimeter2;whiteSpace=wrap;html=1;fixedSize=1;size=26.320000000000164;fillColor=#a0522d;fontColor=#ffffff;strokeColor=#6D1F00;" vertex="1" parent="1">
                    <mxGeometry x="752.3699999999998" y="126" width="52.631578947368425" height="48" as="geometry"/>
                </mxCell>
                <mxCell id="70" style="edgeStyle=none;html=1;" edge="1" parent="1" source="62">
                    <mxGeometry relative="1" as="geometry">
                        <mxPoint x="901.3157894736839" y="90" as="targetPoint"/>
                    </mxGeometry>
                </mxCell>
                <mxCell id="62" value="Bastion" style="shape=hexagon;perimeter=hexagonPerimeter2;whiteSpace=wrap;html=1;fixedSize=1;size=93.00000000000023;fillColor=#a0522d;fontColor=#ffffff;strokeColor=#6D1F00;" vertex="1" parent="1">
                    <mxGeometry x="874.9999999999998" y="126" width="52.631578947368425" height="48" as="geometry"/>
                </mxCell>
                <mxCell id="64" value="Bastion" style="shape=hexagon;perimeter=hexagonPerimeter2;whiteSpace=wrap;html=1;fixedSize=1;size=93.00000000000023;fillColor=#a0522d;fontColor=#ffffff;strokeColor=#6D1F00;" vertex="1" parent="1">
                    <mxGeometry x="603.6799999999997" y="394" width="52.631578947368425" height="48" as="geometry"/>
                </mxCell>
                <mxCell id="71" value="East Door" style="text;html=1;align=center;verticalAlign=middle;resizable=0;points=[];autosize=1;strokeColor=none;fillColor=none;" vertex="1" parent="1">
                    <mxGeometry x="800" y="700" width="80" height="30" as="geometry"/>
                </mxCell>
                <mxCell id="72" value="West Door" style="text;html=1;align=center;verticalAlign=middle;resizable=0;points=[];autosize=1;strokeColor=none;fillColor=none;" vertex="1" parent="1">
                    <mxGeometry x="800" y="96" width="80" height="30" as="geometry"/>
                </mxCell>
                <mxCell id="73" value="&lt;span style=&quot;font-family: Roboto, Helvetica, sans-serif; font-size: 40px; font-weight: 700; text-align: left;&quot;&gt;&lt;font style=&quot;color: rgb(0, 0, 0);&quot;&gt;Kshira Sagara&lt;/font&gt;&lt;/span&gt;" style="ellipse;shape=cloud;whiteSpace=wrap;html=1;fillColor=#b1ddf0;strokeColor=#10739e;" vertex="1" parent="1">
                    <mxGeometry x="350" y="-760" width="950" height="340" as="geometry"/>
                </mxCell>
                <mxCell id="75" value="" style="shape=process;whiteSpace=wrap;html=1;backgroundOutline=1;fillColor=#fad7ac;strokeColor=#b46504;" vertex="1" parent="1">
                    <mxGeometry x="675" y="-370" width="330" height="180" as="geometry"/>
                </mxCell>
                <mxCell id="76" value="" style="ellipse;whiteSpace=wrap;html=1;aspect=fixed;fillColor=#0050ef;fontColor=#ffffff;strokeColor=#001DBC;" vertex="1" parent="1">
                    <mxGeometry x="815" y="-140" width="50" height="50" as="geometry"/>
                </mxCell>
                <mxCell id="77" value="" style="shape=hexagon;perimeter=hexagonPerimeter2;whiteSpace=wrap;html=1;fixedSize=1;" vertex="1" parent="1">
                    <mxGeometry x="780" y="-320" width="120" height="80" as="geometry"/>
                </mxCell>
                <mxCell id="81" value="" style="triangle;whiteSpace=wrap;html=1;fillColor=#fa6800;fontColor=#000000;strokeColor=#C73500;" vertex="1" parent="1">
                    <mxGeometry x="835" y="-295" width="35" height="30" as="geometry"/>
                </mxCell>
                <mxCell id="82" value="&lt;font style=&quot;font-size: 40px;&quot;&gt;Temple&lt;/font&gt;" style="text;html=1;align=center;verticalAlign=middle;resizable=0;points=[];autosize=1;strokeColor=none;fillColor=none;" vertex="1" parent="1">
                    <mxGeometry x="765" y="-250" width="150" height="60" as="geometry"/>
                </mxCell>
                <mxCell id="86" style="edgeStyle=none;html=1;" edge="1" parent="1" source="83">
                    <mxGeometry relative="1" as="geometry">
                        <mxPoint x="779.185" y="-119.99999999999977" as="targetPoint"/>
                    </mxGeometry>
                </mxCell>
                <mxCell id="83" value="Bastion" style="shape=hexagon;perimeter=hexagonPerimeter2;whiteSpace=wrap;html=1;fixedSize=1;size=27.63000000000011;fillColor=#a0522d;fontColor=#ffffff;strokeColor=#6D1F00;" vertex="1" parent="1">
                    <mxGeometry x="760.37" y="-210" width="37.63" height="40" as="geometry"/>
                </mxCell>
                <mxCell id="87" style="edgeStyle=none;html=1;" edge="1" parent="1" source="84">
                    <mxGeometry relative="1" as="geometry">
                        <mxPoint x="902.185" y="-99.99999999999977" as="targetPoint"/>
                    </mxGeometry>
                </mxCell>
                <mxCell id="84" value="Bastion" style="shape=hexagon;perimeter=hexagonPerimeter2;whiteSpace=wrap;html=1;fixedSize=1;size=27.63000000000011;fillColor=#a0522d;fontColor=#ffffff;strokeColor=#6D1F00;" vertex="1" parent="1">
                    <mxGeometry x="883.37" y="-210" width="37.63" height="40" as="geometry"/>
                </mxCell>
                <mxCell id="94" value="Bastion" style="shape=hexagon;perimeter=hexagonPerimeter2;whiteSpace=wrap;html=1;fixedSize=1;size=17.63000000000011;fillColor=#a0522d;fontColor=#ffffff;strokeColor=#6D1F00;" vertex="1" parent="1">
                    <mxGeometry x="712.3699999999998" width="52.631578947368425" height="48" as="geometry"/>
                </mxCell>
                <mxCell id="95" value="Bastion" style="shape=hexagon;perimeter=hexagonPerimeter2;whiteSpace=wrap;html=1;fixedSize=1;size=17.63000000000011;fillColor=#a0522d;fontColor=#ffffff;strokeColor=#6D1F00;" vertex="1" parent="1">
                    <mxGeometry x="914.9999999999998" width="52.631578947368425" height="48" as="geometry"/>
                </mxCell>
                <mxCell id="96" value="Bastion" style="shape=hexagon;perimeter=hexagonPerimeter2;whiteSpace=wrap;html=1;fixedSize=1;size=17.63000000000011;fillColor=#a0522d;fontColor=#ffffff;strokeColor=#6D1F00;" vertex="1" parent="1">
                    <mxGeometry x="712.3699999999998" y="750" width="52.631578947368425" height="48" as="geometry"/>
                </mxCell>
                <mxCell id="97" value="Bastion" style="shape=hexagon;perimeter=hexagonPerimeter2;whiteSpace=wrap;html=1;fixedSize=1;size=17.63000000000011;fillColor=#a0522d;fontColor=#ffffff;strokeColor=#6D1F00;" vertex="1" parent="1">
                    <mxGeometry x="914.9999999999998" y="750" width="52.631578947368425" height="48" as="geometry"/>
                </mxCell>
                <mxCell id="98" value="&lt;font style=&quot;font-size: 42px;&quot;&gt;BalleKilla&lt;/font&gt;" style="text;html=1;align=center;verticalAlign=middle;resizable=0;points=[];autosize=1;strokeColor=none;fillColor=none;" vertex="1" parent="1">
                    <mxGeometry x="735" y="174" width="200" height="60" as="geometry"/>
                </mxCell>
            </root>
        </mxGraphModel>
    </diagram>
</mxfile>